<svg version="1" xmlns="http://www.w3.org/2000/svg" width="574.667" height="574.667" viewBox="0 0 431.000000 431.000000"><path d="M239 50c0 .5.5 1 1 1 .6 0 1-.5 1-1 0-.6-.4-1-1-1-.5 0-1 .4-1 1zM218 52.1c0 .5.5.7 1 .4.6-.3 1-.8 1-1.1 0-.2-.4-.4-1-.4-.5 0-1 .5-1 1.1zM237.6 57.2c-.8 3.3.7 4.2 3.5 1.9 2-1.8 2.2-2.2.9-3.1-2.4-1.6-3.7-1.2-4.4 1.2zM233.2 60c0 1.4.2 1.9.5 1.2.2-.6.2-1.8 0-2.5-.3-.6-.5-.1-.5 1.3zM220.4 64.1c-.8 1.4 1.4 1.9 2.5.6.8-1 .7-1.4-.5-1.4-.8 0-1.7.4-2 .8zM245.1 67.6c0 1.1.3 1.4.6.6.3-.7.2-1.6-.1-1.9-.3-.4-.6.2-.5 1.3zM146 68.5c0 .8.5 1.5 1 1.5.6 0 1-.7 1-1.5s-.4-1.5-1-1.5c-.5 0-1 .7-1 1.5zM225 68.6c0 1.6.9 1.8 2.8.5 1-.6.9-1-.7-1.4-1.4-.3-2.1 0-2.1.9zM299 68c-1.3.9-1.3 1.1 0 2 2.3 1.5 4.2 1.2 3.8-.7-.4-2.1-1.9-2.6-3.8-1.3zM218.3 68.7c-1.5.5-1.8 3.3-.4 3.3.6 0 1.3-.5 1.6-1 .3-.6 1.6-1 2.8-1 1.8 0 1.9-.2.7-1-1.6-1-2.8-1.1-4.7-.3zM236.7 74.1c.6 2.1 2.9 3.6 3.9 2.6.8-.8-1.9-4.7-3.2-4.7-.7 0-1 .9-.7 2.1zM252.7 73.6c.5 1.4.2 1.6-1.9 1.2-2.4-.4-2.7-.1-3.4 3.6-.4 2.3-.7 4.6-.7 5.3.1 1.3-4.7 3.3-8.1 3.4-2.1 0-2.1.1-.1.8 1.1.5 2.4.6 2.9.3.5-.2.7 2.3.4 5.7-.3 4.3 0 6.5.9 7.3.7.6 1.3 1.9 1.3 2.9 0 1.2.9 1.9 2.8 2.1 1.7.2 2.6.8 2.4 1.7-.8 3.6 7.8 4.2 15 .9 5.4-2.4 6-3.5 2.3-4-3.6-.4-3.6-2.2 0-2.3 2.5 0 3-.4 2.9-2.3 0-1.4.8-3 2.3-3.9 3.4-2.2 2.8-3.9-1.4-4.1-4.8-.4-5.3-.8-5.3-4.2 0-1.6-.4-3.2-1-3.5-.5-.3-1-2-1-3.6 0-2.7-.2-2.9-2.7-2.3-3.6.9-3.9 1.2-2.5 2.6 1.9 1.9 1.5 5-.5 4.6-1.2-.2-1.8-1.2-1.7-2.8.1-1.4-.4-2.8-1-3.2-.7-.5-.4-.8.7-.8.9 0 1.7-.5 1.7-1 0-.6-.9-1-2.1-1-1.5 0-1.9-.4-1.4-1.9.3-1.1.1-2.2-.4-2.6-.7-.4-.8.1-.4 1.1zm-2.2 10.3c.3.5.1 1.2-.5 1.6-.5.3-1-.1-1-.9 0-1.8.6-2.1 1.5-.7zm12.8 3.1c.6 0 .1.7-1.1 1.6-1.3.9-3.1 1.3-4.3.9-2-.7-2-.7-.2-2.1 1-.7 2.4-1.1 3.1-.9.8.3 1.9.5 2.5.5zm3.7 10c0 .5-.4 1-1 1-.5 0-1-.5-1-1 0-.6.5-1 1-1 .6 0 1 .4 1 1zM126.5 74c-.3.5-.1 1 .4 1 .6 0 1.1-.5 1.1-1 0-.6-.2-1-.4-1-.3 0-.8.4-1.1 1zM305.5 77.9c-.9 5.1-3.2 6-6.1 2.4l-2.3-2.8.1 4.3c0 2.3.5 4.5 1 4.8.5.3.6 2 .3 3.6-.4 1.8-.2 4 .5 5.3 1.8 3.3-1.5 11.4-4.2 10.7-1.2-.3-1.8.1-1.8 1.2 0 1 .8 1.6 2.1 1.6 1.7 0 2 .4 1.4 2.8-.4 2.2.5 5 4 11.9 2.5 5 4.5 9.5 4.5 10.1 0 .6.9 2.7 2.1 4.6 1.3 2.3 2.2 5.9 2.5 10.3.2 3.7.8 8.8 1.4 11.3.5 2.5 1.2 7.9 1.5 12 .7 8.6 3.4 22.1 7.1 36.5 5.7 21.9 6.9 43.5 3.2 58.4-.3 1.7 5.7 2.7 6.7 1.1.3-.5.8-3.7 1.1-7.2.3-3.5 1-6.5 1.5-6.6 1.1-.4 1.2-5.2.1-5.2-.5 0-.6-2-.2-4.5.4-2.5.4-4.5.1-4.5-.3-.1.9-.7 2.7-1.5 2.6-1.1 3.2-1.9 2.7-3.4-.4-1.3 0-2 1.5-2.4 1.7-.4 1.9-1 1.3-3.8-.4-2.3-.3-3 .5-2.5.7.4 1.2 1.4 1.2 2.2 0 .8.5 1.4 1 1.4 1.5 0 1.2-3.7-.5-5.4-1.4-1.3-1.3-1.6.4-2.6 1.8-.9 2-.6 2.4 2.7.2 2.1.3.8.2-3-.1-3.7.1-8.7.6-11 .4-2.4 1-8.7 1.2-14 .4-7.6.2-9.7-.8-9.7-.7 0-1.5-.7-1.9-1.5-.3-.8-.1-1.5.4-1.5s1.2-1.1 1.6-2.5c.9-3.5 2.4-3.1 2.4.7 0 1.7.3 2.8.7 2.4.6-.6.5-8.7-.1-9.4-.8-.7-3.5 1.2-2.9 2.1.3.6.1.7-.5.3-.7-.4-.9-1.9-.5-3.6.7-3.9-.4-8-2.2-8-2.7 0-1.6-1.8 1.5-2.5 3-.7 4.3-3.5 1.5-3.5-1.1 0-1.5-1.1-1.5-4 0-2.7-.5-4.3-1.5-4.6-.8-.4-1.5-1.5-1.5-2.5 0-1.1-.7-2.2-1.5-2.5-1.6-.7-2.9-4.3-4.6-13.2-.6-3.4-1.6-6.5-2-6.8-.5-.3-.6.9-.3 2.6.4 1.9.2 3-.5 3-.6 0-1.1-.7-1.1-1.6 0-1-.5-1.4-1.5-1-1.2.4-1.4 0-.9-2.2.4-1.5 1.4-3.7 2.2-4.9 1.2-2 1.2-2.3-.1-2.9-.9-.3-2-.3-2.5 0-1.5.9-3.6-6.7-3.3-12.4.1-3.1.8-6.1 1.7-7 1.2-1.2 1.4-1.2 1.4.7 0 1.6.5 2 2 1.6 1.6-.4 1.8-.8.9-1.9-.9-1.1-.8-1.9.5-3.3s1.4-2.1.6-2.6c-.7-.4-1.6-.1-2.1.6-.6 1-1.1 1.1-1.6.3-.5-.6-1.6-1.3-2.5-1.7-2.5-.9-1.1-3.7 1.7-3.7 2 0 2.3-.5 2.2-2.8-.1-1.5-.7-2.7-1.2-2.7-.6 0-1.6-.4-2.3-.9-.7-.4-1.9-.3-2.6.3-.9.7-1.6.7-2.3 0-1.6-1.6-2.8.8-1.3 2.6 1 1.2.9 1.5-.9 1.5-2.5 0-5.4-4.1-4.5-6.4.4-1.1.1-1.6-1-1.6-.9 0-1.6-.7-1.6-1.6 0-.8-.5-1.2-1-.9-.6.4-.8 1.1-.5 1.6.4.5-.1.9-1 .9s-1.3-.4-1-1c.7-1.1-1.2-5-2.4-5-.5 0-1.2 1.8-1.6 3.9zm8 9.1c.3.5-.1 1-1 1s-1.3-.5-1-1c.3-.6.8-1 1-1 .2 0 .7.4 1 1zm6.5 10c0 .5-.4 1-1 1-.5 0-1-.5-1-1 0-.6.5-1 1-1 .6 0 1 .4 1 1zm-1 12.7c0 1.4-.2 1.4-2-.2-1.1-1-2-2.2-2-2.7s.9-.4 2 .2c1.1.6 2 1.8 2 2.7zm18 35.3c0 .5-.4 1-1 1-.5 0-1-.5-1-1 0-.6.5-1 1-1 .6 0 1 .4 1 1zm5 14c0 .5-.5 1-1.1 1-.5 0-.7-.5-.4-1 .3-.6.8-1 1.1-1 .2 0 .4.4.4 1zm0 54.5c0 .8-.4 1.5-1 1.5-.5 0-1-.7-1-1.5s.5-1.5 1-1.5c.6 0 1 .7 1 1.5zM206.2 77.8c-1.7 1.7-2.1 2.7-1.3 3.5.8.8.6 1.6-.6 2.9-1.5 1.7-1.5 1.8.5 1.8 1.2 0 2.2-.5 2.2-1 0-.6.7-1 1.5-1 1.3 0 1.5-.8 1-4.3-.4-2.3-.7-4.2-.8-4.3-.1 0-1.2 1.1-2.5 2.4z"/><path d="M284 76.5c0 1-1 1.5-3 1.5-3.4 0-8 1.9-8 3.3 0 .6-1.6.7-4 .3-2.5-.4-4-.2-4 .4 0 .5 1.2 1 2.6 1 1.9 0 2.5.4 2.1 1.5-.9 2.2.9 2.7 6.3 2 3.7-.5 5-1.1 5-2.3 0-1.2.6-.8 1.8 1 2 3.4 6.2 3.9 6.2.8 0-1.1-.5-2-1.1-2-.6 0-.9-.9-.6-2 .3-1.1.1-2-.4-2s-.9-1.1-.9-2.5-.4-2.5-1-2.5c-.5 0-1 .7-1 1.5zM109 79c-2.2.7-2 .8 1.5 1 2.3.2 3.1.5 1.9.7-1.2.2-2.4 1.3-2.7 2.4-.4 1.6-1.1 1.9-2.6 1.4-2.5-.8-6.1.2-6.1 1.7 0 .5.7.8 1.5.4.8-.3 2.5-.1 3.7.4 1.6.6 1.8.9.7.9-.9.1-2.2.8-2.9 1.6-.7.8-1.6 1.5-2.1 1.5s-.9-.7-.9-1.5-.5-1.5-1.1-1.5c-.6 0-.8.7-.5 1.6 1 2.6-.4 6.1-2.9 7.2-1.7.8-2.2 1.6-1.8 3.2.7 2.6 6.3 7 8.9 7 1.1 0 2.6.6 3.2 1.2 1 1 1.5 1 2.2-.2.7-1.2 1.2-1.2 2.1-.3 1 1 .9 1.4-.4 1.9-.9.3-1.7 1.3-1.7 2 0 1.2.4 1.2 2 .4 1.2-.6 2-2.1 2-3.6 0-1.4.4-2.2 1-1.9.6.3 1 .1 1-.5s.9-2.1 2-3.3c1.8-1.9 1.9-2.2.5-2.7s-1.4-.9.5-3.3c1.2-1.5 2.6-2.4 3.2-2.1.6.4.6 1-.1 1.7-1.9 1.9-1.2 2.8.7.9 1.6-1.4 1.7-1.9.6-3.3-1-1.1-1.1-1.8-.3-2.6s.4-1.5-1.2-2.7l-2.3-1.6h2.7c1.5 0 2.7.4 2.7 1 0 .5.5 1 1 1 .6 0 1-.9 1-2 0-1.2.7-2 1.7-2 1.6 0 1.6-.1 0-1.7-1.5-1.5-2-1.6-3.8-.5-2.4 1.5-2.6 1.4-3.1-1.3-.1-1.1-1-2.3-1.8-2.7-2-.9-6.9-.8-10 .2zm5.5 9c1.1 1.8-.5 3.1-2.1 1.6-.8-.8-1.4-1.7-1.4-2 0-1 2.8-.7 3.5.4zM225.8 79.7c.7.3 1.6.2 1.9-.1.4-.3-.2-.6-1.3-.5-1.1 0-1.4.3-.6.6zM222 84.5c0 2.4.5 3.5 1.5 3.5 1.5 0 2-2.6.9-5.4-1.1-2.8-2.4-1.7-2.4 1.9zM227.6 84.7c-.3.3-.3 1 0 1.4.7 1.2 3.4 1.1 3.4 0s-2.6-2.2-3.4-1.4zM229 89.5c0 .8.7 1.5 1.5 1.5.9 0 1.2-.6.9-1.5-.4-.8-1-1.5-1.5-1.5s-.9.7-.9 1.5zM277 91c0 1.1.3 2 .8 2.1.4 0 1.5.2 2.4.4 1.2.2 1.5-.2 1.1-1.3C280 88.8 277 88 277 91zM289 93.6c0 2.3-.6 4.2-1.7 5-1.1.8-1.3 1.3-.5 1.4.6 0 2.1-.9 3.2-2s1.5-2 .8-2c-.6 0-.4-.6.6-1.3 1.9-1.4 1.3-4.7-1-4.7-.9 0-1.4 1.2-1.4 3.6zM235.5 96c-.3.5.1 1 .9 1 .9 0 1.6-.5 1.6-1 0-.6-.4-1-.9-1-.6 0-1.3.4-1.6 1zM279.5 99c.3.5.8 1 1.1 1 .2 0 .4-.5.4-1 0-.6-.5-1-1.1-1-.5 0-.7.4-.4 1zM338.2 101c0 1.4.2 1.9.5 1.2.2-.6.2-1.8 0-2.5-.3-.6-.5-.1-.5 1.3zM88.1 116.6c0 1.1.3 1.4.6.6.3-.7.2-1.6-.1-1.9-.3-.4-.6.2-.5 1.3zM99.7 121.2c-1.3 1.8-1.8 2-2.5 1-.6-.9-2-1.1-4.6-.7-3.9.8-4.4 2.8-.8 3.3 2.3.4 3.1 2.2 1 2.2-.9 0-.8.4.2 1 1.3.9 1.3 1-.1 1-.8 0-2-.5-2.7-1.2-.9-.9-1.2-.6-1.2 1.6 0 2 .5 2.7 1.8 2.5.9-.1 2.6-.1 3.7 0 1.9.2 1.9.2.2 1.2-1 .6-2.8.8-4.1.5-2.8-.7-5.6 2.4-5.6 6.3 0 4.5 1 6.1 3.6 6.1 1.3 0 2.4.4 2.4.9 0 1.2-2.9 2.3-4.1 1.5-.5-.3-.9-.1-.9.5 0 .5 1.4 1.2 3 1.6 1.7.4 2.7 1.1 2.4 1.6-.3.6-1.2.8-2 .5-1.6-.6-1.9 2.1-.4 4.4.7 1.1 1.2 1.2 2.1.3.6-.6 1.8-.9 2.5-.6 1.6.6 1.9 3.3.4 3.3-1.3 0 0 3.2 1.8 4.6.8.6 1.2 1.6.8 2.2-.5.8-.2 1 .8.6 1.9-.7 1.9-.9.6-3.5-.8-1.4-.6-2.7.5-5 1.4-2.6 1.4-3.3.2-5.2-.7-1.2-1.6-3.8-2-5.7-.3-1.9-.8-4.2-1.2-5.1-.9-2.4 2.5-3.4 4.4-1.3 1.2 1.2 1.3 1.8.4 2.1-1.6.6-1.7 3.9-.2 4.8 1.4.9 1.5.7 2.3-4.1.5-3.3.2-4.6-1.5-6.5-2.1-2.4-2.1-2.4-.1-2.7 1.9-.3 3.8-3 2.8-3.9-.3-.3-1.9.2-3.5 1-1.7.9-3.1 1.1-3.1.6 0-.5.5-.9 1-.9.7 0 .7-.6 0-2-.9-1.6-.8-2 .5-2 .8 0 1.5-.4 1.5-.9s.8-1.7 1.7-2.6c1.6-1.6 1.7-1.6 3 .1 1 1.4 1.6 1.5 2.5.6.9-.9.8-1.2-.5-1.2-1.1 0-1.6-.7-1.4-2.2.3-3.2-3.5-3.6-5.6-.6zM97 153c0 .5-.4 1-1 1-.5 0-1-.5-1-1 0-.6.5-1 1-1 .6 0 1 .4 1 1zM98.5 171.2c-.4.9-.2 2.5.3 3.5 1 1.7 1.1 1.7 1.7.1.4-.9.2-2.5-.3-3.5-1-1.7-1.1-1.7-1.7-.1zM271.5 174c.4.6-.5 1-2.2 1.1-4.2.1-6.4.6-7.6 1.8-.6.6-3.1 1.1-5.6 1.1-6 0-9.1.9-9.1 2.6 0 .7 1 1.6 2.3 1.9 3.3.9 15.1-.2 15.5-1.4.2-.6 1.2-1.1 2.2-1.1 1.9 0 8.2-2.9 6.5-3.1-.5 0 .1-.5 1.4-1 2.8-1.1 2.6-1.4-1.2-2.3-1.9-.4-2.6-.3-2.2.4zM74.8 179.7c-1.3 2.7-3.1 5.4-4 6.1-1 .7-1.8 2-1.8 2.8 0 .8-.4 1.4-1 1.4-.5 0-1 .9-1 1.9 0 1.1.5 2.3 1 2.6.6.3 1 1.5 1 2.6s-.4 1.7-1 1.4c-.5-.3-1-.1-1 .4 0 .6.5 1.1 1 1.1.6 0 1 1.3 1 3 0 1.6.4 3 .9 3 .4 0 1.1-3.9 1.4-8.6.3-4.8.8-8.8 1-9.1 1-1 8.7 1.1 8.7 2.3 0 .8.6 1.4 1.3 1.4.7 0 1.2-1.3 1.2-3.3-.1-1.9-.6-3.1-1.3-3-.7.2-1.2-.2-1.2-.7 0-.6.5-1 1-1 .6 0 1-.7 1-1.5s-.4-1.5-1-1.5h-1.7c-.5 0-.8.8-.8 1.7 0 2.6-1.9 2.5-3.2-.2-1-2.2-.8-2.8 1.9-5 2.6-2.2 2.7-2.5.9-2.5-1.4 0-2.7 1.4-4.3 4.7zM95.4 178.5c-.3 1.4-.2 4.4.4 6.6 1 4.1.7 6.9-.8 6.9-1.1 0 0 3.9 1.3 4.7.6.4.8-.3.3-2.1-.3-1.4-.2-2.6.3-2.6.6 0 .8 3.1.5 7.6-.4 4.9-.2 7.4.5 7 .5-.4 1.2-.2 1.6.4.3.5.1 1-.4 1-.6 0-1.1.9-1.1 2s-.7 2-1.5 2-1.5.6-1.5 1.4c0 2.1 1.7 2.9 2.4 1.1.3-.8 1-1.5 1.5-1.5 1.4 0 .2 9-1.6 11.6-.7 1.2-1.1 2.9-.7 3.8.4 1.1.1 1.6-1.4 1.6-3 0-4.4 2.4-4.1 7.1.2 2.7-.1 4.4-.9 4.7-1.5.5-1.6 3.9 0 4.4.6.2 1.2 2.8 1.3 6.2.2 4.5.7 6.3 2.5 7.9l2.2 2.2-.7-3.5c-.4-2.4-.3-3.1.4-2.1.7 1.1 1.1-1.3 1.4-8 .4-9.8 2.6-26.4 5.1-38.4.8-4.1 1.4-11.7 1.3-18.2-.2-11.3-1.2-15.2-2.3-9.4-.7 3.3-3.3 4-4.2 1.2-.3-.8 0-1.1.6-.7 1.8 1.1 2.5-1.4 1.2-4.5-1.5-3.6-2.8-3.7-3.6-.4zm3.3 25.7c-.3.8-.6.5-.6-.6-.1-1.1.2-1.7.5-1.3.3.3.4 1.2.1 1.9z"/><path d="M81 194.4c0 .9.5 1.6 1 1.6.6 0 1-.4 1-.9 0-.6-.4-1.3-1-1.6-.5-.3-1 .1-1 .9zM250 196.6c-1.4.8-4 1.3-5.7 1.1-2.2-.2-3.3.1-3.3 1 0 .7-.6 1.3-1.4 1.3-.7 0-1.6.9-1.9 2.1-.3 1.1-1.5 2.3-2.6 2.6-1.2.3-2.1 1.2-2.1 2 0 1.2.8 1.4 3.7 1 2-.4 3.9-1.1 4.3-1.7.4-.7 1-.3 1.3 1.1.4 1.3.2 2.8-.3 3.3-1.6 1.6-1.2 2.3 1.5 2.9 1.9.3 3.1-.2 4.5-2.1 2.4-2.9 2.6-5 .4-3.2-1.3 1.1-1.9 1-3.7-.8l-2.1-2.2 3.6-3.4c2-1.9 4.9-4.1 6.5-5 1.5-.8 2.1-1.5 1.3-1.5-.8.1-2.6.7-4 1.5zM237.5 198c.3.5.8 1 1.1 1 .2 0 .4-.5.4-1 0-.6-.5-1-1.1-1-.5 0-.7.4-.4 1zM81 199c0 .5.7 1 1.6 1 .8 0 1.2-.5.9-1-.3-.6-1-1-1.6-1-.5 0-.9.4-.9 1zM260 202.1c0 .5.4.9 1 .9.5 0 .7.6.4 1.4-.4 1.1 0 1.3 1.6.9 2-.5 2.1-.3 1.7 4.6-.3 3.4-.1 5.4.7 5.6 1.9.6 9.2 1.3 7.9.8-2.2-.8-1.4-3.3 1.2-4.3 1.9-.7 2.5-1.7 2.5-4 0-2.5.4-3 2.5-3 1.3 0 2.8.6 3.2 1.4.4.8 1.9 1.6 3.3 1.9 1.4.2 1.9.2 1.3 0-.7-.3-1.3-1.2-1.3-2.2 0-3.5-5.3-5.2-16-5-5.5.1-10 .5-10 1zM77.2 204.7c.2 1 1 1.8 1.8 1.8s1.6-.8 1.8-1.8c.2-1.2-.3-1.7-1.8-1.7s-2 .5-1.8 1.7zM152 204c0 .5.8.6 1.8.3 1.5-.6 1.5-.5.3 1s-1.1 1.7.8 1.7c3 0 3.9 2.9 1.5 4.8-1.5 1.2-1.6 1.3-.2.9.9-.3 1.8-.1 2 .5.5 1.5 4.8 0 4.8-1.8 0-.8-.4-1.4-1-1.4-.5 0-1 .4-1 1 0 .5-.5 1-1 1-.6 0-.5-.8.2-2 .7-1.1 1.8-2 2.4-2 1.4 0 1.4-3.3 0-4.2-1.6-1.1-10.6-1-10.6.2zM83.3 206.8c-1.9.3-2.3 1-2.3 3.8 0 3.1.2 3.4 3 3.4s3-.3 3-3.4c0-3.9-.5-4.4-3.7-3.8zm1.4 1.8c-.3.3-1.2.4-1.9.1-.8-.3-.5-.6.6-.6 1.1-.1 1.7.2 1.3.5zM139.5 211c-.3.5-.1 1 .4 1 .6 0 1.1-.5 1.1-1 0-.6-.2-1-.4-1-.3 0-.8.4-1.1 1zM69.2 213.2c1.8 2.6 3.8 3.5 3.8 1.6 0-.7-1.2-1.8-2.6-2.5-2.5-1.2-2.5-1.1-1.2.9zM86 237c0 .5.5 1 1.1 1 .5 0 .7-.5.4-1-.3-.6-.8-1-1.1-1-.2 0-.4.4-.4 1zM322 274.9c0 2.9-.5 5.1-1.2 5.3-.8.3-.8.9 0 2.4 1.1 1.8 1.1 1.8 1.2-.4 0-1.2.3-2.2.8-2.2 1.1 0 3.2-7.5 2.1-7.8-.5-.2-.7-.8-.3-1.3.3-.5-.2-.9-1-.9-1.2 0-1.6 1.1-1.6 4.9zM230.1 276.9c-.8.5-1.1 1.6-.6 3 .5 1.6 1.4 2.1 4.1 2.1 4.6 0 4.9-.2 4.5-2.5-.5-3.3-4.7-4.6-8-2.6zM196.1 278.9c-1.5 1-.8 1.5 3.2 2.5 1.9.4 2.6.3 2.2-.4-.3-.5.2-1 1.2-1 1.5 0 1.6-.2.3-1-1.9-1.2-5.1-1.3-6.9-.1zM323.1 286.6c0 1.1.3 1.4.6.6.3-.7.2-1.6-.1-1.9-.3-.4-.6.2-.5 1.3zM237.6 286.7c-1.2 1.2-.6 3.3 1 3.3 1.3 0 5.2-2.8 4.2-3.1-2.9-.6-4.6-.7-5.2-.2zM231.5 290c-.7 1.2 2.7 2.2 3.7 1.2.6-.6.1-1.2-1.1-1.5-1.2-.3-2.3-.2-2.6.3zM320.7 289.6c-.4.4-.7 2.6-.6 4.8v4.1l1.6-3.8c1-2.4 1.2-4.2.6-4.8-.5-.5-1.2-.6-1.6-.3zM234 296c2 1.3 3.3 1.3 2.5 0-.3-.6-1.4-1-2.3-1-1.5 0-1.5.2-.2 1zM236.5 300c.3.5 1.5 1 2.6 1 1 0 1.9-.5 1.9-1 0-.6-1.2-1-2.6-1-1.4 0-2.3.4-1.9 1zM269.7 316.7c-1.4.4-1.7 1.1-1.2 3 .4 1.9.1 2.6-1.5 3-1.1.3-2 1.1-2 1.8s-.7 1.6-1.6 1.9c-.8.3-1.2 1.1-.9 1.6.4.7-.2.9-1.9.4-3.7-.9-7.6.3-7.6 2.3 0 1.4-.3 1.3-1.6-.5-.8-1.2-2-1.9-2.6-1.6-.6.4-6.3 1.1-12.7 1.5-6.4.5-14.3 1.3-17.6 1.8l-6 .8 9.5.2c5.2.1 12 .5 15 .9 11 1.3 20 .4 22.9-2.2 1.9-1.8 2.1-1.7 5.6.4 3 1.9 4 2 6.7 1.1 1.7-.6 4.2-1.1 5.4-1.1 2.6 0 3.1-1.9 1.2-3.9-1.1-1-.8-1.6 1.1-3 1.5-1.2 2.2-2.4 1.8-3.4-.3-.9-.2-1.7.3-1.9.5-.2.2-1.2-.6-2.3-1.4-1.9-1.6-1.9-2.5-.3-1.2 2.2-4.9 2.4-4.9.3 0-1.5-.9-1.7-4.3-.8zm6.6 5c-.7.2-1.9.2-2.5 0-.7-.3-.2-.5 1.2-.5s1.9.2 1.3.5zm4.4.9c-.3.3-1.2.4-1.9.1-.8-.3-.5-.6.6-.6 1.1-.1 1.7.2 1.3.5zM273 336.4c0 3.1.6 3.4 1.3.6.3-1.1.1-2.3-.4-2.6-.5-.3-.9.6-.9 2zM277 338c0 .5.5 1 1 1 .6 0 1-.5 1-1 0-.6-.4-1-1-1-.5 0-1 .4-1 1zM307 353.1c0 .5.5.7 1 .4.6-.3 1-.8 1-1.1 0-.2-.4-.4-1-.4-.5 0-1 .5-1 1.1zM285.5 354c-.8 1.3.3 3 2.1 3s1.8-1.4 0-2.9c-1-.8-1.6-.9-2.1-.1zM300.6 355.8c-.9 1.7-1.6 4.1-1.6 5.4.1 2.2.2 2.2 1.6-.5 1-1.8 2.1-2.6 3-2.3 1.8.7 1.8-1.4 0-3.9-1.3-1.8-1.4-1.7-3 1.3zM296 355.7c0 .5.5 1.5 1 2.3.8 1.2 1 1.1 1-.8 0-1.2-.4-2.2-1-2.2-.5 0-1 .3-1 .7zM271 358c0 1.1.4 2 .8 2 .5 0 .9 1.8 1 4 .2 3.3-.1 4-1.7 4-1.3 0-2.1 1-2.5 3.4-.4 1.9-1.2 3.7-1.9 3.9-.7.3-.5.6.4.6 2.6.1 3.1 2.9.9 4.1-1.1.6-2 1.7-2 2.5 0 .9-.6 1.2-1.5.9-2.3-.9-3 2.4-1 4.6 1.8 1.9 1.7 2-1.3 2-1.7 0-3.8-.7-4.6-1.6-.9-.8-1.6-1.1-1.6-.5 0 .6 1 1.9 2.2 3.1 3 2.8 0 2.8-3.6-.1-1.5-1.2-3.1-1.7-3.8-1.2-.7.4-2.4.6-3.8.4-2-.2-2.2-.1-1.2 1.2.8.9.9 1.8.3 2.1-.5.3-.7 1.5-.4 2.5.5 1.8-2.1 3.5-4.3 2.9-1.2-.2-8.4 4.2-8.4 5.2 0 .4-2.6 1.1-5.7 1.5-8 1-18.3 1.2-18.3.2 0-.4-1-.3-2.1.4-1.2.6-3.4.8-5 .5-2.2-.4-3.2-.1-4.1 1.4-.7 1.1-2 2-3 2-.9 0-1.8.4-2 1-.5 1.4-4.8 0-4.8-1.6 0-.8-.7-1.4-1.5-1.4s-1.5-.4-1.5-.9c0-1.4-4.1 0-4.7 1.5-.7 1.8-6.1 1.8-8.2.1-3.1-2.6-6.5-3.5-9.1-2.4-2.3.9-2.3 1-.5 1.5 1.1.2 3.6 2.1 5.6 4.1 5.6 5.7 9.5 6.1 61.8 6.4 36.8.2 45.5 0 45.9-1.1.2-.7 1.4-1.7 2.7-2.2 1.2-.5 3.2-2.9 4.4-5.4 1.1-2.5 2.6-4.6 3.2-4.6.7 0 .9-1 .7-2.5-.3-1.4-.1-2.5.3-2.5.5 0 .9-.5.9-1.1 0-.7.6-1.7 1.3-2.3.8-.6 2.2-3.8 3.2-7.1s3.1-8.4 4.7-11.3c2.4-4.5 2.6-5.6 1.6-7.5-1-1.9-1.3-1.9-1.6-.5-.2 1-1.5 1.8-3 2-3.3.4-4.4 3.8-1.2 3.8 1.2 0 1.8.4 1.5 1-.4.6-1.1.8-1.6.5-.5-.4-.9.5-.9 1.8 0 2-.7 2.6-3.7 3.4-3.1.8-4.4.6-6.8-.9-1.6-1-2.5-1.8-1.9-1.8 1.7 0 2.4-5.1.9-5.7-2.2-.8-2.7-5.3-1-8 .9-1.3 1.4-3 1.1-3.6-.3-.9-.5-.9-.5 0-.1 1.6-3.3 1.7-4.9.1-2-2-1.4-3.1 1.3-2.4 1.9.5 2.3.3 1.9-.9-.4-.8-1.7-1.5-3-1.5s-2.4-.5-2.4-1c0-.6-.4-1-1-1-.5 0-1 .9-1 2zM218.2 359.5c-1.1 1.3-.9 1.5 1.3 1.5 1.6 0 2.5-.6 2.5-1.5 0-1.9-2.1-1.9-3.8 0z"/><path d="M291.8 359.4c-1 .7-1.8 2.3-1.8 3.6 0 1.9.4 2.1 2.6 1.6 2.1-.6 2.7-.3 3.2 1.6.5 2.1.6 2.1 1.3.2 1.2-3.1 1-5.4-.4-4.8-.8.3-1.8-.4-2.3-1.5-.8-1.7-1.2-1.8-2.6-.7zM302 363.1c0 1.7.4 2.8 1 2.4.6-.3 1-1.7 1-3.1 0-1.3-.4-2.4-1-2.4-.5 0-1 1.4-1 3.1zM135 383.9c0 .5.6 1.4 1.4 2 1.2 1 1.3.8.9-.8-.5-2.1-2.3-3-2.3-1.2zM141 390c0 .5.9 1 1.9 1 1.1 0 2.1.6 2.4 1.2.2.7.7 1 1.1.7.3-.3.4-1.4 0-2.3-.7-1.7-5.4-2.3-5.4-.6zM152.2 397c2 2.8 4.8 4 4.8 2.2 0-1.4-4-5.2-5.6-5.2-1.1 0-1 .7.8 3z"/></svg>